<svg width="12" height="12" viewBox="0 0 12 12" fill="none" xmlns="http://www.w3.org/2000/svg">
<mask id="path-1-outside-1_5377_5168" maskUnits="userSpaceOnUse" x="0.273438" y="0.591309" width="11" height="11" fill="black">
<rect fill="white" x="0.273438" y="0.591309" width="11" height="11"/>
<path d="M10.1754 2.47866C6.44707 0.078477 4.84347 3.9088 1.47398 1.59629C1.47082 1.59412 1.46621 1.59611 1.4658 1.59992C1.10754 4.91017 1.33668 6.00838 1.45945 8.04562C1.46412 8.12314 1.50584 8.19681 1.57048 8.23984C4.85001 10.423 7.10716 6.97151 9.64445 10.0358C10.3585 7.18815 10.1919 5.38732 10.1778 2.48297C10.1778 2.48126 10.1769 2.47958 10.1754 2.47866Z"/>
</mask>
<path d="M10.1754 2.47866C6.44707 0.078477 4.84347 3.9088 1.47398 1.59629C1.47082 1.59412 1.46621 1.59611 1.4658 1.59992C1.10754 4.91017 1.33668 6.00838 1.45945 8.04562C1.46412 8.12314 1.50584 8.19681 1.57048 8.23984C4.85001 10.423 7.10716 6.97151 9.64445 10.0358C10.3585 7.18815 10.1919 5.38732 10.1778 2.48297C10.1778 2.48126 10.1769 2.47958 10.1754 2.47866Z" fill="white"/>
<path d="M1.47398 1.59629L1.8135 1.10159L1.8135 1.10159L1.47398 1.59629ZM10.1754 2.47866L9.85064 2.98316L9.85075 2.98323L10.1754 2.47866ZM10.1778 2.48297L10.7778 2.48007V2.47997L10.1778 2.48297ZM9.64445 10.0358L9.18231 10.4184L9.93817 11.3313L10.2264 10.1817L9.64445 10.0358ZM1.57048 8.23984L1.238 8.7393L1.23801 8.7393L1.57048 8.23984ZM1.45945 8.04562L0.860533 8.08172L1.45945 8.04562ZM1.4658 1.59992L0.869282 1.53536V1.53536L1.4658 1.59992ZM1.13446 2.09099C2.06853 2.73205 2.91644 2.96793 3.72761 2.97222C4.51123 2.97636 5.22885 2.76063 5.85515 2.58146C6.5051 2.39553 7.07927 2.24076 7.70474 2.25329C8.31131 2.26544 9.00351 2.4378 9.85064 2.98316L10.5002 1.97416C9.48315 1.31942 8.57677 1.07051 7.72877 1.05353C6.89967 1.03692 6.16328 1.24517 5.5251 1.42774C4.86328 1.61707 4.31519 1.77531 3.73396 1.77224C3.18028 1.76931 2.56418 1.61679 1.8135 1.10159L1.13446 2.09099ZM9.57783 2.48588C9.59205 5.4266 9.75352 7.13387 9.06246 9.88982L10.2264 10.1817C10.9634 7.24244 10.7917 5.34805 10.7778 2.48007L9.57783 2.48588ZM10.1066 9.65309C9.40305 8.80344 8.67693 8.36017 7.90718 8.18446C7.16305 8.0146 6.43707 8.11138 5.79087 8.21493C4.47346 8.42604 3.32226 8.68518 1.90296 7.74038L1.23801 8.7393C3.09823 9.97762 4.71537 9.60259 5.98074 9.39982C6.62593 9.29643 7.14495 9.24133 7.64013 9.35437C8.10969 9.46155 8.6172 9.73594 9.18231 10.4184L10.1066 9.65309ZM2.05836 8.00953C1.93422 5.94959 1.71082 4.91224 2.06232 1.66448L0.869282 1.53536C0.504262 4.90811 0.739132 6.06716 0.860533 8.08172L2.05836 8.00953ZM1.90297 7.74038C1.99747 7.80329 2.05191 7.90258 2.05836 8.00953L0.860533 8.08172C0.876321 8.34371 1.01421 8.59032 1.238 8.7393L1.90297 7.74038ZM9.85075 2.98323C9.6885 2.87882 9.57888 2.69548 9.57783 2.48598L10.7778 2.47997C10.7767 2.26705 10.6652 2.08034 10.5001 1.97409L9.85075 2.98323ZM1.8135 1.10159C1.45796 0.85758 0.921364 1.05413 0.869282 1.53536L2.06232 1.66448C2.01106 2.13809 1.48369 2.33067 1.13446 2.09099L1.8135 1.10159Z" fill="black" mask="url(#path-1-outside-1_5377_5168)"/>
<path d="M4.63322 4.36456C4.63322 4.88616 4.21038 5.309 3.68878 5.309C3.16718 5.309 2.74434 4.88616 2.74434 4.36456C2.74434 3.84296 3.16718 3.42012 3.68878 3.42012C4.21038 3.42012 4.63322 3.84296 4.63322 4.36456Z" stroke="black" stroke-width="0.6"/>
<path d="M3.15527 6.56885C3.86639 7.7244 6.79972 8.16885 8.04417 6.56885" stroke="black" stroke-width="0.6" stroke-linecap="round"/>
<line x1="8.56006" y1="3.61567" x2="6.85099" y2="5.32474" stroke="#FF0000" stroke-width="0.6" stroke-linecap="round"/>
<line x1="0.3" y1="-0.3" x2="2.71698" y2="-0.3" transform="matrix(-0.707106 -0.707107 0.707106 -0.707107 8.84473 5.32422)" stroke="#FF0000" stroke-width="0.6" stroke-linecap="round"/>
</svg>
